<svg width="180" height="40" viewBox="0 0 180 40" fill="none" xmlns="http://www.w3.org/2000/svg">
<path d="M25.1604 1.05386L21.2274 0L17.913 12.3696L14.9207 1.20224L10.9876 2.2561L14.2206 14.3216L6.16795 6.26898L3.28876 9.14817L12.1215 17.981L1.12173 15.0336L0.0678711 18.9666L12.0865 22.187C11.9489 21.5935 11.8761 20.9751 11.8761 20.3397C11.8761 15.8421 15.5221 12.1961 20.0197 12.1961C24.5173 12.1961 28.1633 15.8421 28.1633 20.3397C28.1633 20.971 28.0914 21.5856 27.9555 22.1756L38.8782 25.1023L39.932 21.1693L27.8656 17.9361L38.8661 14.9885L37.8122 11.0555L25.7463 14.2885L33.7989 6.23592L30.9197 3.35673L22.2095 12.067L25.1604 1.05386Z" fill="#1B263B"/>
<path d="M27.9448 22.2217C27.6076 23.6473 26.8957 24.928 25.9189 25.9541L33.8319 33.8672L36.7111 30.988L27.9448 22.2217Z" fill="#1B263B"/>
<path d="M25.8389 26.0366C24.8503 27.0463 23.601 27.7998 22.2 28.1881L25.0794 38.9341L29.0124 37.8802L25.8389 26.0366Z" fill="#1B263B"/>
<path d="M22.0531 28.2274C21.4031 28.3945 20.7218 28.4833 20.0197 28.4833C19.2675 28.4833 18.5391 28.3813 17.8476 28.1904L14.9656 38.9462L18.8986 40L22.0531 28.2274Z" fill="#1B263B"/>
<path d="M17.7085 28.1511C16.3289 27.7435 15.1018 26.9804 14.1334 25.9678L6.20093 33.9003L9.08012 36.7795L17.7085 28.1511Z" fill="#1B263B"/>
<path d="M14.0672 25.8976C13.1154 24.8786 12.4221 23.615 12.0921 22.2114L1.13379 25.1477L2.18764 29.0807L14.0672 25.8976Z" fill="#1B263B"/>
<path d="M56.4489 29V11.5455H60.1393V25.9574H67.6222V29H56.4489ZM75.9638 29.2557C74.6173 29.2557 73.4582 28.983 72.4866 28.4375C71.5207 27.8864 70.7763 27.108 70.2536 26.1023C69.7309 25.0909 69.4695 23.8949 69.4695 22.5142C69.4695 21.1676 69.7309 19.9858 70.2536 18.9688C70.7763 17.9517 71.5121 17.1591 72.461 16.5909C73.4155 16.0227 74.5349 15.7386 75.819 15.7386C76.6826 15.7386 77.4866 15.8778 78.2309 16.1562C78.9809 16.429 79.6343 16.8409 80.1911 17.392C80.7536 17.9432 81.1911 18.6364 81.5036 19.4716C81.8161 20.3011 81.9724 21.2727 81.9724 22.3864V23.3835H70.9184V21.1335H78.5548C78.5548 20.6108 78.4411 20.1477 78.2138 19.7443C77.9866 19.3409 77.6712 19.0256 77.2678 18.7983C76.8701 18.5653 76.407 18.4489 75.8786 18.4489C75.3275 18.4489 74.8388 18.5767 74.4127 18.8324C73.9923 19.0824 73.6627 19.4205 73.4241 19.8466C73.1854 20.267 73.0633 20.7358 73.0576 21.2528V23.392C73.0576 24.0398 73.1769 24.5994 73.4155 25.071C73.6599 25.5426 74.0036 25.9062 74.4468 26.1619C74.89 26.4176 75.4155 26.5455 76.0235 26.5455C76.4269 26.5455 76.7962 26.4886 77.1315 26.375C77.4667 26.2614 77.7536 26.0909 77.9923 25.8636C78.2309 25.6364 78.4127 25.358 78.5377 25.0284L81.8957 25.25C81.7252 26.0568 81.3758 26.7614 80.8474 27.3636C80.3246 27.9602 79.6485 28.4261 78.819 28.7614C77.9951 29.0909 77.0434 29.2557 75.9638 29.2557ZM88.0746 29.2472C87.2394 29.2472 86.4951 29.1023 85.8417 28.8125C85.1883 28.517 84.6712 28.0824 84.2905 27.5085C83.9155 26.929 83.728 26.2074 83.728 25.3438C83.728 24.6165 83.8616 24.0057 84.1286 23.5114C84.3957 23.017 84.7593 22.6193 85.2195 22.3182C85.6798 22.017 86.2025 21.7898 86.7877 21.6364C87.3786 21.483 87.9979 21.375 88.6457 21.3125C89.407 21.233 90.0207 21.1591 90.4866 21.0909C90.9525 21.017 91.2905 20.9091 91.5008 20.767C91.711 20.625 91.8161 20.4148 91.8161 20.1364V20.0852C91.8161 19.5455 91.6457 19.1278 91.3048 18.8324C90.9695 18.5369 90.4923 18.3892 89.8729 18.3892C89.2195 18.3892 88.6996 18.5341 88.3133 18.8239C87.9269 19.108 87.6712 19.4659 87.5462 19.8977L84.1883 19.625C84.3587 18.8295 84.694 18.142 85.194 17.5625C85.694 16.9773 86.3388 16.5284 87.1286 16.2159C87.9241 15.8977 88.8445 15.7386 89.89 15.7386C90.6173 15.7386 91.3133 15.8239 91.978 15.9943C92.6485 16.1648 93.2423 16.429 93.7593 16.7869C94.282 17.1449 94.694 17.6051 94.9951 18.1676C95.2962 18.7244 95.4468 19.392 95.4468 20.1705V29H92.0036V27.1847H91.9013C91.6911 27.5938 91.4099 27.9545 91.0576 28.267C90.7053 28.5739 90.282 28.8153 89.7877 28.9915C89.2934 29.1619 88.7224 29.2472 88.0746 29.2472ZM89.1144 26.7415C89.6485 26.7415 90.1201 26.6364 90.5292 26.4261C90.9383 26.2102 91.2593 25.9205 91.4923 25.5568C91.7252 25.1932 91.8417 24.7812 91.8417 24.321V22.9318C91.728 23.0057 91.5718 23.0739 91.3729 23.1364C91.1798 23.1932 90.961 23.2472 90.7167 23.2983C90.4724 23.3437 90.228 23.3864 89.9837 23.4261C89.7394 23.4602 89.5178 23.4915 89.319 23.5199C88.8928 23.5824 88.5207 23.6818 88.2025 23.8182C87.8843 23.9545 87.6371 24.1392 87.461 24.3722C87.2849 24.5994 87.1968 24.8835 87.1968 25.2244C87.1968 25.7188 87.3758 26.0966 87.7337 26.358C88.0974 26.6136 88.5576 26.7415 89.1144 26.7415ZM101.894 21.4318V29H98.2636V15.9091H101.724V18.2188H101.877C102.167 17.4574 102.653 16.8551 103.335 16.4119C104.016 15.9631 104.843 15.7386 105.815 15.7386C106.724 15.7386 107.516 15.9375 108.193 16.3352C108.869 16.733 109.394 17.3011 109.769 18.0398C110.144 18.7727 110.332 19.6477 110.332 20.6648V29H106.701V21.3125C106.707 20.5114 106.502 19.8864 106.087 19.4375C105.673 18.983 105.102 18.7557 104.374 18.7557C103.886 18.7557 103.454 18.8608 103.079 19.071C102.71 19.2812 102.42 19.5881 102.21 19.9915C102.005 20.3892 101.9 20.8693 101.894 21.4318ZM115.196 11.5455L119.415 24.8068H119.577L123.804 11.5455H127.895L121.878 29H117.122L111.097 11.5455H115.196ZM129.928 29V15.9091H133.558V29H129.928ZM131.751 14.2216C131.212 14.2216 130.749 14.0426 130.362 13.6847C129.982 13.321 129.791 12.8864 129.791 12.3807C129.791 11.8807 129.982 11.4517 130.362 11.0938C130.749 10.7301 131.212 10.5483 131.751 10.5483C132.291 10.5483 132.751 10.7301 133.132 11.0938C133.519 11.4517 133.712 11.8807 133.712 12.3807C133.712 12.8864 133.519 13.321 133.132 13.6847C132.751 14.0426 132.291 14.2216 131.751 14.2216ZM141.291 29.2131C140.296 29.2131 139.396 28.9574 138.589 28.446C137.788 27.929 137.151 27.1705 136.68 26.1705C136.214 25.1648 135.981 23.9318 135.981 22.4716C135.981 20.9716 136.222 19.7244 136.705 18.7301C137.188 17.7301 137.83 16.983 138.631 16.4886C139.438 15.9886 140.322 15.7386 141.282 15.7386C142.015 15.7386 142.626 15.8636 143.114 16.1136C143.609 16.358 144.006 16.6648 144.308 17.0341C144.614 17.3977 144.847 17.7557 145.006 18.108H145.117V11.5455H148.739V29H145.16V26.9034H145.006C144.836 27.267 144.595 27.6278 144.282 27.9858C143.975 28.3381 143.575 28.6307 143.08 28.8636C142.592 29.0966 141.995 29.2131 141.291 29.2131ZM142.441 26.3239C143.026 26.3239 143.521 26.1648 143.924 25.8466C144.333 25.5227 144.646 25.071 144.862 24.4915C145.083 23.9119 145.194 23.233 145.194 22.4545C145.194 21.6761 145.086 21 144.87 20.4261C144.654 19.8523 144.342 19.4091 143.933 19.0966C143.524 18.7841 143.026 18.6278 142.441 18.6278C141.845 18.6278 141.342 18.7898 140.933 19.1136C140.524 19.4375 140.214 19.8864 140.004 20.4602C139.793 21.0341 139.688 21.6989 139.688 22.4545C139.688 23.2159 139.793 23.8892 140.004 24.4744C140.22 25.054 140.529 25.5085 140.933 25.8381C141.342 26.1619 141.845 26.3239 142.441 26.3239ZM157.69 29.2557C156.344 29.2557 155.185 28.983 154.213 28.4375C153.247 27.8864 152.503 27.108 151.98 26.1023C151.457 25.0909 151.196 23.8949 151.196 22.5142C151.196 21.1676 151.457 19.9858 151.98 18.9688C152.503 17.9517 153.239 17.1591 154.188 16.5909C155.142 16.0227 156.261 15.7386 157.546 15.7386C158.409 15.7386 159.213 15.8778 159.957 16.1562C160.707 16.429 161.361 16.8409 161.918 17.392C162.48 17.9432 162.918 18.6364 163.23 19.4716C163.543 20.3011 163.699 21.2727 163.699 22.3864V23.3835H152.645V21.1335H160.281C160.281 20.6108 160.168 20.1477 159.94 19.7443C159.713 19.3409 159.398 19.0256 158.994 18.7983C158.597 18.5653 158.134 18.4489 157.605 18.4489C157.054 18.4489 156.565 18.5767 156.139 18.8324C155.719 19.0824 155.389 19.4205 155.151 19.8466C154.912 20.267 154.79 20.7358 154.784 21.2528V23.392C154.784 24.0398 154.903 24.5994 155.142 25.071C155.386 25.5426 155.73 25.9062 156.173 26.1619C156.617 26.4176 157.142 26.5455 157.75 26.5455C158.153 26.5455 158.523 26.4886 158.858 26.375C159.193 26.2614 159.48 26.0909 159.719 25.8636C159.957 25.6364 160.139 25.358 160.264 25.0284L163.622 25.25C163.452 26.0568 163.102 26.7614 162.574 27.3636C162.051 27.9602 161.375 28.4261 160.546 28.7614C159.722 29.0909 158.77 29.2557 157.69 29.2557ZM171.983 29.2557C170.659 29.2557 169.514 28.9744 168.548 28.4119C167.588 27.8437 166.847 27.054 166.324 26.0426C165.801 25.0256 165.54 23.8466 165.54 22.5057C165.54 21.1534 165.801 19.9716 166.324 18.9602C166.847 17.9432 167.588 17.1534 168.548 16.5909C169.514 16.0227 170.659 15.7386 171.983 15.7386C173.307 15.7386 174.449 16.0227 175.409 16.5909C176.375 17.1534 177.119 17.9432 177.642 18.9602C178.165 19.9716 178.426 21.1534 178.426 22.5057C178.426 23.8466 178.165 25.0256 177.642 26.0426C177.119 27.054 176.375 27.8437 175.409 28.4119C174.449 28.9744 173.307 29.2557 171.983 29.2557ZM172 26.4432C172.602 26.4432 173.105 26.2727 173.509 25.9318C173.912 25.5852 174.216 25.1136 174.421 24.517C174.631 23.9205 174.736 23.2415 174.736 22.4801C174.736 21.7188 174.631 21.0398 174.421 20.4432C174.216 19.8466 173.912 19.375 173.509 19.0284C173.105 18.6818 172.602 18.5085 172 18.5085C171.392 18.5085 170.881 18.6818 170.466 19.0284C170.057 19.375 169.747 19.8466 169.537 20.4432C169.332 21.0398 169.23 21.7188 169.23 22.4801C169.23 23.2415 169.332 23.9205 169.537 24.517C169.747 25.1136 170.057 25.5852 170.466 25.9318C170.881 26.2727 171.392 26.4432 172 26.4432Z" fill="#1B263B"/>
</svg>
