<svg width="22" height="26" viewBox="0 0 22 26" fill="none" xmlns="http://www.w3.org/2000/svg">
<path d="M21.0612 13.9338C20.9218 13.794 20.7563 13.683 20.5739 13.6073C20.3916 13.5316 20.1961 13.4926 19.9987 13.4926C19.8013 13.4926 19.6058 13.5316 19.4235 13.6073C19.2411 13.683 19.0756 13.794 18.9362 13.9338L12.4999 20.3701V1.99507C12.4999 1.59724 12.3419 1.21571 12.0606 0.934404C11.7793 0.653101 11.3978 0.495064 10.9999 0.495064C10.6021 0.495064 10.2206 0.653101 9.93929 0.934404C9.65798 1.21571 9.49995 1.59724 9.49995 1.99507V20.3701L3.0612 13.9338C2.7794 13.652 2.39721 13.4937 1.9987 13.4937C1.60018 13.4937 1.21799 13.652 0.936196 13.9338C0.654403 14.2156 0.496094 14.5978 0.496094 14.9963C0.496094 15.3948 0.654403 15.777 0.936196 16.0588L9.9362 25.0588C10.0756 25.1987 10.2411 25.3096 10.4235 25.3853C10.6058 25.461 10.8013 25.5 10.9987 25.5C11.1961 25.5 11.3916 25.461 11.5739 25.3853C11.7563 25.3096 11.9218 25.1987 12.0612 25.0588L21.0612 16.0588C21.201 15.9195 21.312 15.7539 21.3877 15.5715C21.4634 15.3892 21.5024 15.1937 21.5024 14.9963C21.5024 14.7989 21.4634 14.6034 21.3877 14.4211C21.312 14.2388 21.201 14.0732 21.0612 13.9338Z" fill="#D9D9D9" fill-opacity="0.5"/>
</svg>
