<svg width="52" height="52" viewBox="0 0 52 52" fill="none" xmlns="http://www.w3.org/2000/svg">
<circle cx="26" cy="26" r="25.5" stroke="white"/>
<path d="M26 20C24.8133 20 23.6533 20.3519 22.6666 21.0112C21.6799 21.6705 20.9108 22.6075 20.4567 23.7039C20.0026 24.8003 19.8838 26.0067 20.1153 27.1705C20.3468 28.3344 20.9182 29.4035 21.7574 30.2426C22.5965 31.0818 23.6656 31.6532 24.8295 31.8847C25.9933 32.1162 27.1997 31.9974 28.2961 31.5433C29.3925 31.0892 30.3295 30.3201 30.9888 29.3334C31.6481 28.3467 32 27.1867 32 26C31.9983 24.4092 31.3657 22.884 30.2408 21.7592C29.116 20.6343 27.5908 20.0017 26 20ZM26 30C25.2089 30 24.4355 29.7654 23.7777 29.3259C23.1199 28.8864 22.6072 28.2616 22.3045 27.5307C22.0017 26.7998 21.9225 25.9956 22.0769 25.2196C22.2312 24.4437 22.6122 23.731 23.1716 23.1716C23.731 22.6122 24.4437 22.2312 25.2196 22.0769C25.9956 21.9225 26.7998 22.0017 27.5307 22.3045C28.2616 22.6072 28.8864 23.1199 29.3259 23.7777C29.7654 24.4355 30 25.2089 30 26C30 27.0609 29.5786 28.0783 28.8284 28.8284C28.0783 29.5786 27.0609 30 26 30ZM32 13H20C18.1441 13.002 16.3648 13.7401 15.0524 15.0524C13.7401 16.3648 13.002 18.1441 13 20V32C13.002 33.8559 13.7401 35.6352 15.0524 36.9476C16.3648 38.2599 18.1441 38.998 20 39H32C33.8559 38.998 35.6352 38.2599 36.9476 36.9476C38.2599 35.6352 38.998 33.8559 39 32V20C38.998 18.1441 38.2599 16.3648 36.9476 15.0524C35.6352 13.7401 33.8559 13.002 32 13ZM37 32C37 33.3261 36.4732 34.5979 35.5355 35.5355C34.5979 36.4732 33.3261 37 32 37H20C18.6739 37 17.4021 36.4732 16.4645 35.5355C15.5268 34.5979 15 33.3261 15 32V20C15 18.6739 15.5268 17.4021 16.4645 16.4645C17.4021 15.5268 18.6739 15 20 15H32C33.3261 15 34.5979 15.5268 35.5355 16.4645C36.4732 17.4021 37 18.6739 37 20V32ZM34 19.5C34 19.7967 33.912 20.0867 33.7472 20.3334C33.5824 20.58 33.3481 20.7723 33.074 20.8858C32.7999 20.9994 32.4983 21.0291 32.2074 20.9712C31.9164 20.9133 31.6491 20.7704 31.4393 20.5607C31.2296 20.3509 31.0867 20.0836 31.0288 19.7926C30.9709 19.5017 31.0007 19.2001 31.1142 18.926C31.2277 18.6519 31.42 18.4176 31.6666 18.2528C31.9133 18.088 32.2033 18 32.5 18C32.8978 18 33.2794 18.158 33.5607 18.4393C33.842 18.7206 34 19.1022 34 19.5Z" fill="white"/>
</svg>
