<svg width="42" height="42" viewBox="0 0 42 42" fill="none" xmlns="http://www.w3.org/2000/svg">
<path d="M21 0.6875C16.9826 0.6875 13.0554 1.87881 9.71499 4.11077C6.37462 6.34274 3.77111 9.51512 2.23371 13.2267C0.696301 16.9384 0.294046 21.0225 1.07781 24.9628C1.86157 28.903 3.79615 32.5224 6.6369 35.3631C9.47766 38.2039 13.097 40.1384 17.0372 40.9222C20.9775 41.706 25.0616 41.3037 28.7733 39.7663C32.4849 38.2289 35.6573 35.6254 37.8892 32.285C40.1212 28.9446 41.3125 25.0174 41.3125 21C41.3068 15.6145 39.1649 10.4513 35.3568 6.64317C31.5487 2.83507 26.3855 0.693187 21 0.6875ZM26.793 22.1055L18.9805 29.918C18.8353 30.0631 18.663 30.1783 18.4733 30.2569C18.2836 30.3354 18.0803 30.3759 17.875 30.3759C17.6697 30.3759 17.4664 30.3354 17.2767 30.2569C17.0871 30.1783 16.9147 30.0631 16.7695 29.918C16.6244 29.7728 16.5092 29.6005 16.4306 29.4108C16.3521 29.2211 16.3116 29.0178 16.3116 28.8125C16.3116 28.6072 16.3521 28.4039 16.4306 28.2142C16.5092 28.0245 16.6244 27.8522 16.7695 27.707L23.4785 21L16.7695 14.293C16.4764 13.9998 16.3116 13.6021 16.3116 13.1875C16.3116 12.7729 16.4764 12.3752 16.7695 12.082C17.0627 11.7888 17.4604 11.6241 17.875 11.6241C18.2896 11.6241 18.6873 11.7888 18.9805 12.082L26.793 19.8945C26.9383 20.0396 27.0535 20.212 27.1321 20.4017C27.2108 20.5913 27.2512 20.7947 27.2512 21C27.2512 21.2053 27.2108 21.4087 27.1321 21.5983C27.0535 21.788 26.9383 21.9604 26.793 22.1055Z" fill="#778DA9"/>
</svg>
