<svg width="52" height="52" viewBox="0 0 52 52" fill="none" xmlns="http://www.w3.org/2000/svg">
<circle cx="26" cy="26" r="25.5" stroke="white"/>
<path d="M33.3025 25.4563C32.8686 25.1296 32.4024 24.8482 31.9112 24.6163C31.4112 20.88 28.9113 19.7025 27.7738 19.3575C25.3013 18.6075 22.46 19.5062 21.1675 21.445C21.0946 21.5543 21.044 21.6769 21.0185 21.8058C20.993 21.9347 20.9931 22.0674 21.0189 22.1962C21.0709 22.4564 21.2242 22.6853 21.445 22.8325C21.6658 22.9797 21.936 23.0332 22.1962 22.9811C22.3251 22.9553 22.4476 22.9044 22.5567 22.8313C22.6659 22.7582 22.7596 22.6643 22.8325 22.555C23.6288 21.36 25.5825 20.785 27.1938 21.2712C28.4375 21.6462 29.2962 22.5588 29.7125 23.8962C29.0825 23.7763 28.4426 23.7165 27.8013 23.7175C26.0613 23.7175 24.4325 24.1662 23.2175 24.98C21.7875 25.9462 21 27.375 21 29C21 31.5725 22.9825 33.44 25.7137 33.44C26.5169 33.4345 27.3108 33.2679 28.0484 32.9499C28.7859 32.6319 29.4521 32.169 30.0075 31.5888C30.8125 30.7513 31.7575 29.2938 31.9587 26.9513C32.0063 26.9838 32.0513 27.0175 32.0963 27.0513C33.36 28.0063 34 29.335 34 31C34 33.42 31.4575 37 26 37C22.6588 37 20.315 35.9188 18.8325 33.695C17.6163 31.875 17 29.2825 17 26C17 22.7175 17.6163 20.125 18.8325 18.305C20.315 16.0813 22.6588 15 26 15C30.1163 15 32.75 16.6562 34.0662 20.065C34.1124 20.189 34.1827 20.3025 34.273 20.3992C34.3634 20.4958 34.472 20.5735 34.5926 20.6278C34.7131 20.6822 34.8433 20.7121 34.9755 20.7158C35.1078 20.7195 35.2394 20.6969 35.3628 20.6493C35.4863 20.6018 35.599 20.5302 35.6946 20.4388C35.7902 20.3474 35.8667 20.2379 35.9197 20.1167C35.9727 19.9955 36.0011 19.865 36.0033 19.7328C36.0055 19.6005 35.9814 19.4691 35.9325 19.3462C34.335 15.195 30.9 13 26 13C22 13 19.0238 14.4113 17.1675 17.195C15.7287 19.3538 15 22.315 15 26C15 29.685 15.7287 32.6462 17.1675 34.805C19.0238 37.5888 22 39 26 39C29.7587 39 32.1125 37.565 33.425 36.3625C35.0375 34.885 36 32.875 36 31C36 28.7075 35.0675 26.79 33.3025 25.4563ZM28.5662 30.2062C28.1977 30.5928 27.7554 30.9015 27.2654 31.1141C26.7755 31.3267 26.2478 31.4388 25.7137 31.4438C24.3625 31.4438 23 30.6938 23 29.0037C23 27.425 24.5 25.7275 27.8013 25.7275C28.5447 25.7255 29.2847 25.8273 30 26.03C30 27.79 29.5 29.2325 28.5662 30.2025V30.2062Z" fill="white"/>
</svg>
