<svg width="52" height="52" viewBox="0 0 52 52" fill="none" xmlns="http://www.w3.org/2000/svg">
<path d="M40.9237 18.6175C40.8481 18.4348 40.72 18.2786 40.5555 18.1687C40.3911 18.0587 40.1978 18.0001 40 18H36.1963C35.6644 17.0952 34.9076 16.3435 33.9992 15.8178C33.0909 15.2921 32.0619 15.0104 31.0125 15C30.2306 14.9898 29.4546 15.136 28.7301 15.4301C28.0056 15.7242 27.3472 16.1602 26.7937 16.7125C26.2241 17.2715 25.7719 17.9388 25.4639 18.6751C25.1559 19.4114 24.9981 20.2019 25 21V21.7613C19.9675 20.4338 15.8512 16.34 15.8075 16.2963C15.6733 16.1609 15.5033 16.0667 15.3174 16.0248C15.1315 15.9828 14.9375 15.9949 14.7582 16.0595C14.5789 16.1241 14.4218 16.2386 14.3054 16.3895C14.1891 16.5404 14.1182 16.7214 14.1012 16.9113C13.5625 22.885 15.2975 26.8825 16.8512 29.1838C17.6088 30.3214 18.5305 31.3407 19.5862 32.2088C17.6825 34.4 14.685 35.5513 14.6525 35.5638C14.5114 35.6166 14.3841 35.7007 14.28 35.8097C14.1759 35.9186 14.0979 36.0497 14.0516 36.1931C14.0053 36.3365 13.992 36.4885 14.0127 36.6378C14.0335 36.787 14.0877 36.9296 14.1712 37.055C14.265 37.195 14.64 37.6863 15.5562 38.145C16.6887 38.7125 18.185 39 20 39C28.8337 39 36.215 32.1975 36.9688 23.445L40.7075 19.7075C40.8473 19.5676 40.9425 19.3893 40.981 19.1953C41.0195 19.0013 40.9995 18.8002 40.9237 18.6175ZM35.2987 22.2938C35.1273 22.4656 35.0242 22.694 35.0088 22.9363C34.5 30.8225 27.91 37 20 37C18.68 37 17.75 36.825 17.0975 36.615C18.5362 35.8338 20.5425 34.49 21.8325 32.555C21.9082 32.4412 21.9598 32.3131 21.9841 32.1786C22.0083 32.0442 22.0048 31.9061 21.9736 31.773C21.9425 31.64 21.8844 31.5147 21.8029 31.405C21.7214 31.2952 21.6184 31.2034 21.5 31.135C21.4412 31.1013 16.0112 27.8425 16 19.135C18 20.76 21.6562 23.2813 25.8337 23.9838C25.9769 24.0079 26.1236 24.0006 26.2637 23.9623C26.4037 23.924 26.5338 23.8557 26.6448 23.7621C26.7558 23.6684 26.845 23.5518 26.9064 23.4202C26.9677 23.2886 26.9997 23.1452 27 23V21C26.9989 20.4666 27.1045 19.9383 27.3105 19.4463C27.5166 18.9543 27.819 18.5084 28.2 18.135C28.5652 17.7691 29 17.4802 29.4788 17.2852C29.9576 17.0903 30.4706 16.9933 30.9875 17C32.57 17.02 34.0487 17.985 34.6675 19.4013C34.7455 19.5793 34.8737 19.7308 35.0364 19.8371C35.1992 19.9435 35.3894 20.0001 35.5837 20H37.5837L35.2987 22.2938Z" fill="white"/>
<circle cx="26" cy="26" r="25.5" stroke="white"/>
</svg>
