<svg width="22" height="26" viewBox="0 0 22 26" fill="none" xmlns="http://www.w3.org/2000/svg">
<path d="M21.0859 12.0613C20.9465 12.2011 20.7809 12.3121 20.5986 12.3878C20.4163 12.4635 20.2208 12.5025 20.0234 12.5025C19.8259 12.5025 19.6305 12.4635 19.4481 12.3878C19.2658 12.3121 19.1002 12.2011 18.9609 12.0613L12.5246 5.62505V24.0001C12.5246 24.3979 12.3666 24.7794 12.0853 25.0607C11.804 25.342 11.4224 25.5001 11.0246 25.5001C10.6268 25.5001 10.2452 25.342 9.96394 25.0607C9.68264 24.7794 9.5246 24.3979 9.5246 24.0001V5.62505L3.08585 12.0613C2.80406 12.3431 2.42187 12.5014 2.02335 12.5014C1.62484 12.5014 1.24265 12.3431 0.960854 12.0613C0.679062 11.7795 0.520752 11.3973 0.520752 10.9988C0.520752 10.6003 0.679062 10.2181 0.960854 9.9363L9.96085 0.9363C10.1002 0.79646 10.2658 0.685505 10.4481 0.609797C10.6305 0.534089 10.8259 0.495117 11.0234 0.495117C11.2208 0.495117 11.4163 0.534089 11.5986 0.609797C11.7809 0.685505 11.9465 0.79646 12.0859 0.9363L21.0859 9.9363C21.2257 10.0757 21.3366 10.2412 21.4124 10.4236C21.4881 10.6059 21.527 10.8014 21.527 10.9988C21.527 11.1962 21.4881 11.3917 21.4124 11.574C21.3366 11.7564 21.2257 11.9219 21.0859 12.0613Z" fill="#D9D9D9" fill-opacity="0.5"/>
</svg>
