<svg width="42" height="42" viewBox="0 0 42 42" fill="none" xmlns="http://www.w3.org/2000/svg">
<path d="M21 0.6875C16.9826 0.6875 13.0554 1.87881 9.71499 4.11077C6.37462 6.34274 3.77111 9.51512 2.23371 13.2267C0.696301 16.9384 0.294046 21.0225 1.07781 24.9628C1.86157 28.903 3.79615 32.5224 6.6369 35.3631C9.47766 38.2039 13.097 40.1384 17.0372 40.9222C20.9775 41.706 25.0616 41.3037 28.7733 39.7663C32.4849 38.2289 35.6573 35.6254 37.8892 32.285C40.1212 28.9446 41.3125 25.0174 41.3125 21C41.3068 15.6145 39.1649 10.4513 35.3568 6.64317C31.5487 2.83507 26.3855 0.693187 21 0.6875ZM25.2305 27.707C25.3757 27.8522 25.4908 28.0245 25.5694 28.2142C25.6479 28.4039 25.6884 28.6072 25.6884 28.8125C25.6884 29.0178 25.6479 29.2211 25.5694 29.4108C25.4908 29.6005 25.3757 29.7728 25.2305 29.918C25.0853 30.0631 24.913 30.1783 24.7233 30.2569C24.5336 30.3354 24.3303 30.3759 24.125 30.3759C23.9197 30.3759 23.7164 30.3354 23.5267 30.2569C23.3371 30.1783 23.1647 30.0631 23.0195 29.918L15.207 22.1055C15.0618 21.9604 14.9465 21.788 14.8679 21.5983C14.7893 21.4087 14.7488 21.2053 14.7488 21C14.7488 20.7947 14.7893 20.5913 14.8679 20.4017C14.9465 20.212 15.0618 20.0396 15.207 19.8945L23.0195 12.082C23.1647 11.9369 23.3371 11.8217 23.5267 11.7431C23.7164 11.6646 23.9197 11.6241 24.125 11.6241C24.3303 11.6241 24.5336 11.6646 24.7233 11.7431C24.913 11.8217 25.0853 11.9369 25.2305 12.082C25.3757 12.2272 25.4908 12.3995 25.5694 12.5892C25.6479 12.7789 25.6884 12.9822 25.6884 13.1875C25.6884 13.3928 25.6479 13.5961 25.5694 13.7858C25.4908 13.9755 25.3757 14.1478 25.2305 14.293L18.5215 21L25.2305 27.707Z" fill="#778DA9"/>
</svg>
