<svg width="52" height="52" viewBox="0 0 52 52" fill="none" xmlns="http://www.w3.org/2000/svg">
<path d="M33.4475 28.105L29.4475 26.105C29.2901 26.0265 29.1147 25.991 28.9391 26.002C28.7636 26.0129 28.594 26.07 28.4475 26.1675L26.6113 27.3925C25.7683 26.9291 25.0747 26.2354 24.6113 25.3925L25.8363 23.5562C25.9337 23.4098 25.9908 23.2402 26.0018 23.0646C26.0128 22.8891 25.9772 22.7137 25.8988 22.5562L23.8988 18.5563C23.8159 18.3888 23.6877 18.248 23.5289 18.1497C23.3701 18.0514 23.1868 17.9995 23 18C21.6739 18 20.4022 18.5268 19.4645 19.4645C18.5268 20.4021 18 21.6739 18 23C18.0033 25.9164 19.1633 28.7123 21.2255 30.7745C23.2877 32.8367 26.0837 33.9967 29 34C29.6566 34 30.3068 33.8707 30.9134 33.6194C31.5201 33.3681 32.0713 32.9998 32.5356 32.5355C32.9999 32.0712 33.3682 31.52 33.6194 30.9134C33.8707 30.3068 34 29.6566 34 29C34.0002 28.8142 33.9485 28.6321 33.851 28.474C33.7534 28.3159 33.6137 28.1881 33.4475 28.105ZM29 32C26.6139 31.9974 24.3262 31.0483 22.639 29.361C20.9517 27.6738 20.0027 25.3861 20 23C19.9998 22.3064 20.24 21.6342 20.6796 21.0977C21.1192 20.5612 21.7312 20.1936 22.4113 20.0575L23.8463 22.9325L22.625 24.75C22.5338 24.8869 22.4777 25.0442 22.4618 25.2079C22.4459 25.3717 22.4706 25.5368 22.5338 25.6888C23.2493 27.3892 24.602 28.742 26.3025 29.4575C26.4549 29.5235 26.6213 29.5505 26.7867 29.5361C26.9521 29.5217 27.1114 29.4663 27.25 29.375L29.0763 28.1575L31.9513 29.5925C31.8141 30.2734 31.4449 30.8856 30.9067 31.3247C30.3685 31.7637 29.6946 32.0024 29 32ZM26 13C23.7556 12.9995 21.5493 13.5801 19.5958 14.6853C17.6424 15.7905 16.0083 17.3826 14.8527 19.3066C13.6972 21.2307 13.0594 23.4212 13.0015 25.6648C12.9436 27.9085 13.4677 30.1289 14.5225 32.11L13.1038 36.3662C12.9863 36.7186 12.9692 37.0968 13.0545 37.4583C13.1398 37.8199 13.3242 38.1505 13.5868 38.4132C13.8495 38.6759 14.1801 38.8602 14.5417 38.9455C14.9032 39.0308 15.2814 39.0138 15.6338 38.8962L19.89 37.4775C21.6335 38.4048 23.5653 38.9228 25.5388 38.992C27.5123 39.0613 29.4757 38.68 31.2799 37.8772C33.084 37.0743 34.6816 35.871 35.9513 34.3586C37.221 32.8462 38.1294 31.0644 38.6077 29.1484C39.0859 27.2325 39.1214 25.2328 38.7114 23.301C38.3015 21.3693 37.4568 19.5564 36.2416 17.9999C35.0263 16.4434 33.4725 15.1842 31.6979 14.3178C29.9234 13.4515 27.9748 13.0008 26 13ZM26 37C24.0663 37.0013 22.1664 36.4921 20.4925 35.5238C20.37 35.4527 20.2337 35.4085 20.0928 35.394C19.9518 35.3796 19.8095 35.3953 19.675 35.44L15 37L16.5588 32.325C16.6037 32.1907 16.6196 32.0483 16.6054 31.9074C16.5911 31.7665 16.5471 31.6301 16.4763 31.5075C15.2637 29.4111 14.7769 26.9732 15.0913 24.572C15.4057 22.1707 16.5038 19.9403 18.2151 18.2267C19.9265 16.5132 22.1555 15.4123 24.5564 15.0949C26.9573 14.7775 29.3958 15.2612 31.4937 16.4711C33.5916 17.681 35.2316 19.5494 36.1592 21.7864C37.0869 24.0235 37.2504 26.5042 36.6243 28.8436C35.9983 31.1831 34.6177 33.2505 32.6967 34.7253C30.7757 36.2 28.4218 36.9996 26 37Z" fill="white"/>
<circle cx="26" cy="26" r="25.5" stroke="white"/>
</svg>
